<svg xmlns="http://www.w3.org/2000/svg" width="700" height="520" viewBox="0 0 700 520" fill="none">
  <rect width="700" height="520" rx="34" fill="#FFF8F0"/>
  <path d="M144 378V215l204-110 204 110v163" fill="#FCFBF9" stroke="#DCC3AA" stroke-width="16"/>
  <path d="M126 394h448" stroke="#B78656" stroke-width="18" stroke-linecap="round"/>
  <rect x="226" y="238" width="96" height="88" rx="10" fill="#F6B31C" fill-opacity=".22"/>
  <rect x="378" y="238" width="96" height="88" rx="10" fill="#EF6C2F" fill-opacity=".2"/>
  <rect x="310" y="278" width="84" height="116" rx="10" fill="#DFA97B"/>
  <path d="M538 130c31-32 75-44 115-31 21 7 40 19 58 33 25 20 31 52 17 76-17 30-57 52-103 53-40 0-76-17-94-43-14-21-12-57 7-88Z" fill="#EF6C2F" fill-opacity=".7"/>
</svg>
