<svg xmlns="http://www.w3.org/2000/svg" viewBox="0 0 1600 1000">
<defs>
  <linearGradient id="g" x1="0" y1="0" x2="1" y2="1">
    <stop offset="0%" stop-color="#6a5748"/>
    <stop offset="50%" stop-color="#b79a76"/>
    <stop offset="100%" stop-color="#2c2622"/>
  </linearGradient>
</defs>
<rect width="1600" height="1000" fill="url(#g)"/>
<rect x="90" y="90" width="1420" height="820" rx="28" fill="rgba(255,255,255,0.06)" stroke="rgba(255,255,255,0.18)"/>
<rect x="1020" y="160" width="350" height="560" rx="8" fill="#efe4d4" opacity="0.9"/>
<rect x="1060" y="220" width="270" height="16" rx="8" fill="#b79a76"/>
<rect x="1060" y="260" width="210" height="10" rx="5" fill="#cab49b"/>
<rect x="1060" y="288" width="240" height="10" rx="5" fill="#cab49b"/>
<rect x="1060" y="316" width="180" height="10" rx="5" fill="#cab49b"/>
<rect x="250" y="210" width="620" height="410" rx="18" fill="#1d1815" opacity="0.4"/>
<rect x="310" y="260" width="300" height="14" rx="7" fill="#e8d9c5" opacity="0.9"/>
<rect x="310" y="300" width="460" height="10" rx="5" fill="#d7c3ab" opacity="0.8"/>
<rect x="310" y="330" width="420" height="10" rx="5" fill="#d7c3ab" opacity="0.8"/>
<rect x="310" y="360" width="360" height="10" rx="5" fill="#d7c3ab" opacity="0.8"/>
<circle cx="420" cy="720" r="120" fill="#e7d5bd" opacity="0.18"/>
<circle cx="1280" cy="760" r="150" fill="#f6eadb" opacity="0.12"/>
</svg>