<svg xmlns="http://www.w3.org/2000/svg" width="760" height="560" viewBox="0 0 760 560" fill="none">
  <rect width="760" height="560" rx="34" fill="#FFF8F0"/>
  <rect x="150" y="88" width="300" height="388" rx="24" fill="#2A211C"/>
  <rect x="182" y="126" width="236" height="18" rx="9" fill="#F8E6D2"/>
  <rect x="182" y="166" width="196" height="18" rx="9" fill="#F8E6D2" opacity=".76"/>
  <rect x="182" y="206" width="226" height="18" rx="9" fill="#F8E6D2" opacity=".76"/>
  <rect x="182" y="246" width="176" height="18" rx="9" fill="#F8E6D2" opacity=".76"/>
  <rect x="182" y="286" width="198" height="18" rx="9" fill="#F8E6D2" opacity=".76"/>
  <path d="M450 190h88" stroke="#2A211C" stroke-width="24" stroke-linecap="round"/>
  <path d="M536 190 621 275" stroke="#2A211C" stroke-width="28" stroke-linecap="round"/>
  <path d="M521 183 603 265" stroke="#EF6C2F" stroke-width="12" stroke-linecap="round"/>
  <circle cx="632" cy="286" r="34" fill="#F6B31C"/>
  <path d="M560 114c35-28 81-36 118-19 19 8 35 22 49 38 19 23 19 55 1 78-23 29-67 43-112 37-39-6-71-28-83-56-10-22-5-55 27-78Z" fill="#EF6C2F" fill-opacity=".28"/>
</svg>
