<svg xmlns="http://www.w3.org/2000/svg" width="800" height="620" viewBox="0 0 800 620" fill="none">
  <rect width="800" height="620" rx="36" fill="#FFF9F3"/>
  <rect x="102" y="110" width="596" height="340" rx="22" fill="#F2E6D8"/>
  <rect x="132" y="146" width="536" height="270" rx="18" fill="#FCFBFA"/>
  <rect x="332" y="210" width="136" height="206" fill="#F6B31C" fill-opacity=".32"/>
  <rect x="332" y="210" width="136" height="206" rx="6" stroke="#E7D0BA"/>
  <path d="M141 476h520" stroke="#D4B89B" stroke-width="18" stroke-linecap="round"/>
  <path d="M231 474v53" stroke="#A77542" stroke-width="16" stroke-linecap="round"/>
  <path d="M568 474v53" stroke="#A77542" stroke-width="16" stroke-linecap="round"/>
  <path d="M538 207c26-28 65-41 98-32 17 4 34 12 49 22 21 15 30 39 22 60-10 28-43 49-84 49-35 0-68-16-83-40-12-18-7-40-2-59Z" fill="#EF6C2F" fill-opacity=".72"/>
  <path d="m576 181 6 29 28 8-28 8-6 29-6-29-28-8 28-8 6-29Z" fill="#FFF7EF"/>
</svg>
